<?xml version="1.0" standalone="no"?>
<!DOCTYPE svg PUBLIC "-//W3C//DTD SVG 20010904//EN"
 "http://www.w3.org/TR/2001/REC-SVG-20010904/DTD/svg10.dtd">
<svg version="1.0" xmlns="http://www.w3.org/2000/svg"
 width="300.000000pt" height="300.000000pt" viewBox="0 0 300.000000 300.000000"
 preserveAspectRatio="xMidYMid meet">
<metadata>
Created by potrace 1.10, written by Peter Selinger 2001-2011
</metadata>
<g transform="translate(0.000000,300.000000) scale(0.100000,-0.100000)"
fill="#000000" stroke="none">
<path d="M1477 2084 c-18 -24 -18 -26 -2 -44 22 -24 16 -54 -13 -58 -16 -3
-22 2 -22 17 0 21 -13 35 -23 25 -3 -4 -1 -15 6 -25 9 -14 9 -21 0 -30 -14
-14 -33 -3 -33 19 0 16 -37 48 -46 39 -2 -2 7 -25 21 -50 25 -44 27 -45 58
-36 41 12 113 12 155 0 27 -8 34 -7 39 7 4 9 15 29 25 44 24 35 23 40 -7 26
-14 -6 -25 -19 -25 -29 0 -23 -19 -34 -33 -20 -9 9 -8 16 1 31 7 12 8 21 2 25
-6 3 -15 -6 -20 -20 -7 -17 -16 -25 -27 -23 -24 4 -28 36 -8 58 16 18 16 20
-2 44 -10 14 -20 25 -23 25 -3 0 -13 -11 -23 -25z"/>
<path d="M1463 1903 c20 -2 54 -2 75 0 20 2 3 4 -38 4 -41 0 -58 -2 -37 -4z"/>
<path d="M1330 1880 c0 -6 63 -10 170 -10 107 0 170 4 170 10 0 6 -63 10 -170
10 -107 0 -170 -4 -170 -10z"/>
<path d="M1423 1853 c42 -2 112 -2 155 0 42 1 7 3 -78 3 -85 0 -120 -2 -77 -3z"/>
<path d="M1320 1796 c0 -25 5 -46 10 -46 6 0 10 18 10 39 0 22 -4 43 -10 46
-6 4 -10 -12 -10 -39z"/>
<path d="M1350 1795 c0 -33 4 -45 15 -45 11 0 15 12 15 45 0 33 -4 45 -15 45
-11 0 -15 -12 -15 -45z"/>
<path d="M1620 1795 c0 -33 4 -45 15 -45 11 0 15 12 15 45 0 33 -4 45 -15 45
-11 0 -15 -12 -15 -45z"/>
<path d="M1666 1831 c-4 -6 -2 -19 3 -28 6 -10 11 -12 11 -5 0 6 4 12 8 12 5
0 7 -13 4 -30 -4 -25 -1 -30 17 -30 24 0 28 18 6 26 -8 4 -15 10 -15 16 0 5
10 2 22 -6 12 -9 38 -17 58 -17 l35 -1 -30 -8 c-28 -7 -27 -8 13 -9 39 -1 42
1 28 14 -8 8 -30 15 -49 15 -31 0 -80 26 -98 53 -4 5 -10 4 -13 -2z"/>
<path d="M1440 1810 c0 -9 6 -17 14 -17 8 0 12 6 9 14 -3 7 0 13 6 13 6 0 11
-8 12 -17 0 -15 2 -15 9 2 7 17 9 17 9 3 1 -10 5 -18 11 -18 5 0 7 7 4 15 -4
8 -1 15 5 15 6 0 11 -6 11 -14 0 -7 12 -16 28 -19 28 -5 47 2 25 10 -7 3 -13
11 -13 19 0 12 -14 15 -65 13 -53 -2 -65 -5 -65 -19z"/>
<path d="M1275 1794 c-10 -8 -34 -14 -53 -14 -18 0 -40 -7 -48 -15 -14 -13
-11 -15 28 -14 40 1 41 2 13 9 -30 8 -30 8 8 9 21 0 36 -3 33 -7 -2 -4 4 -9
15 -9 10 -1 19 4 19 10 0 7 4 6 10 -3 8 -12 10 -9 10 12 0 34 -10 40 -35 22z"/>
<path d="M1405 1772 c-3 -3 -5 -10 -5 -16 0 -6 5 -4 11 4 8 11 12 12 16 3 2
-7 14 -13 24 -13 11 0 18 4 15 9 -3 4 12 8 34 8 22 0 37 -4 34 -8 -3 -5 4 -9
15 -9 31 0 26 17 -6 24 -32 7 -131 5 -138 -2z"/>
<path d="M1110 1730 c0 -6 137 -10 390 -10 253 0 390 4 390 10 0 6 -137 10
-390 10 -253 0 -390 -4 -390 -10z"/>
<path d="M1023 1618 c27 -10 27 -11 27 -99 l0 -90 46 -19 c36 -16 69 -20 155
-20 71 0 108 -4 104 -10 -9 -14 -1 -13 40 7 21 10 34 22 31 30 -3 7 -1 15 4
18 6 4 10 42 10 85 0 76 1 80 28 94 26 14 22 15 -68 15 -90 0 -94 -1 -67 -15
26 -14 27 -17 27 -104 l0 -90 -116 0 c-116 0 -116 0 -110 23 3 12 6 54 6 94 0
69 1 72 28 81 21 8 6 10 -73 10 -79 0 -94 -2 -72 -10z"/>
<path d="M1566 1620 c30 -12 33 -20 36 -75 1 -38 5 -49 20 -53 15 -4 18 -10
13 -30 -5 -20 -3 -23 10 -18 9 3 22 6 28 6 8 0 11 23 9 75 l-4 75 55 0 c48 0
58 -4 76 -26 14 -18 21 -41 21 -71 0 -55 -30 -88 -88 -98 -42 -7 -59 -25 -24
-25 12 0 39 -30 75 -83 73 -108 92 -125 156 -137 67 -13 81 -13 81 0 0 6 -6
10 -14 10 -22 0 -72 46 -123 114 -25 33 -57 71 -72 83 l-26 23 28 0 c37 0 84
46 92 92 9 47 -16 103 -57 128 -29 18 -50 20 -173 19 -89 0 -132 -3 -119 -9z"/>
<path d="M1480 1487 c0 -7 8 -23 17 -37 16 -22 16 -23 -2 -17 -10 4 -26 5 -37
1 -27 -8 -4 -34 31 -34 18 0 22 3 13 9 -11 6 -10 10 3 15 11 4 15 12 11 22 -5
14 -4 15 9 4 23 -19 20 12 -3 33 -22 20 -42 22 -42 4z"/>
<path d="M1763 1480 c-17 -27 -61 -48 -112 -54 -24 -2 -45 -7 -49 -10 -9 -10
60 -7 99 4 38 11 84 51 78 69 -2 6 -10 2 -16 -9z"/>
<path d="M1566 1464 c-19 -18 -20 -30 -6 -39 15 -9 60 22 60 40 0 20 -34 19
-54 -1z"/>
<path d="M1530 1410 c0 -5 4 -10 9 -10 5 0 13 -9 16 -20 7 -23 41 -44 55 -35
16 10 -8 44 -35 51 -14 3 -25 10 -25 15 0 5 -4 9 -10 9 -5 0 -10 -4 -10 -10z"/>
<path d="M960 1391 c-5 -11 -10 -28 -9 -38 0 -15 2 -14 9 4 18 43 56 38 190
-26 88 -42 147 -42 226 0 62 32 97 59 77 59 -7 0 -29 -10 -50 -22 -31 -19 -53
-23 -123 -23 -73 0 -96 5 -163 33 -91 37 -141 41 -157 13z"/>
<path d="M1648 1390 c-22 -4 -25 -8 -18 -20 15 -24 12 -40 -10 -40 -17 0 -19
-8 -22 -72 -3 -67 -5 -73 -25 -76 -13 -2 -23 -7 -23 -10 0 -9 178 -7 187 2 3
3 -3 6 -15 6 -31 0 -37 16 -42 120 l-5 95 -27 -5z"/>
<path d="M1476 1368 c-8 -12 -13 -25 -11 -29 9 -14 43 3 54 27 9 21 8 24 -9
24 -10 0 -26 -10 -34 -22z"/>
<path d="M1527 1350 c-6 -24 16 -59 27 -41 9 15 -1 61 -13 61 -5 0 -11 -9 -14
-20z"/>
<path d="M1048 1273 c-3 -83 -4 -88 -25 -91 -13 -2 -23 -6 -23 -10 0 -4 43 -7
95 -7 52 0 95 3 95 7 0 4 -10 8 -22 10 -21 3 -24 10 -28 68 -5 64 -5 65 -47
88 l-42 23 -3 -88z"/>
<path d="M1395 1319 c-26 -16 -31 -26 -35 -71 -4 -43 -9 -55 -27 -63 -13 -5
-23 -12 -23 -15 0 -3 41 -5 90 -5 50 0 90 3 90 7 0 4 -10 8 -22 10 -21 3 -23
9 -26 81 -2 42 -6 77 -10 76 -4 0 -20 -9 -37 -20z"/>
<path d="M1110 1050 c0 -6 137 -10 390 -10 253 0 390 4 390 10 0 6 -137 10
-390 10 -253 0 -390 -4 -390 -10z"/>
<path d="M1175 1023 c11 -3 25 -12 31 -21 11 -14 14 -14 37 1 36 23 43 21 42
-10 0 -21 5 -29 22 -31 22 -3 89 25 80 34 -2 3 -18 -3 -34 -12 -32 -19 -63
-14 -63 10 0 22 33 26 216 26 127 0 175 -3 189 -13 40 -30 -12 -50 -53 -21
-13 9 -25 14 -28 11 -10 -10 49 -38 74 -35 22 2 27 8 27 29 -1 22 4 26 27 25
14 -1 30 -5 35 -9 4 -5 -1 -5 -11 -1 -14 5 -17 4 -12 -4 10 -17 36 -15 36 2 0
8 10 17 23 19 12 2 -131 4 -318 4 -187 1 -331 -2 -320 -4z"/>
<path d="M1430 997 c-26 -13 -52 -55 -44 -69 11 -17 47 -7 76 22 26 27 28 32
14 45 -17 18 -15 18 -46 2z"/>
<path d="M1530 1001 c0 -5 7 -14 15 -21 9 -7 13 -15 10 -18 -3 -3 -15 3 -26
14 l-22 19 13 -25 c17 -33 40 -49 68 -50 24 0 29 19 12 50 -10 19 -70 45 -70
31z"/>
<path d="M1482 943 c-9 -28 2 -73 19 -73 13 0 22 47 15 75 -8 33 -22 32 -34
-2z"/>
</g>
</svg>
